<?xml version="1.0" encoding="UTF-8" standalone="no" ?>
<!DOCTYPE svg PUBLIC "-//W3C//DTD SVG 1.1//EN" "http://www.w3.org/Graphics/SVG/1.1/DTD/svg11.dtd">
<svg xmlns="http://www.w3.org/2000/svg" xmlns:xlink="http://www.w3.org/1999/xlink" version="1.1" width="800" height="300" viewBox="0 0 800 300" xml:space="preserve">
<desc>Created with Fabric.js 5.2.4</desc>
<defs>
</defs>
<rect x="0" y="0" width="100%" height="100%" fill="transparent"></rect>
<g transform="matrix(Infinity NaN NaN Infinity 0 0)" id="d241386a-b232-4c31-adca-1da98dd0cfe1"  >
</g>
<g transform="matrix(1 0 0 1 400 150)" id="adcb8f43-527b-4887-ad10-1be57d5a5516"  >
<rect style="stroke: none; stroke-width: 1; stroke-dasharray: none; stroke-linecap: butt; stroke-dashoffset: 0; stroke-linejoin: miter; stroke-miterlimit: 4; fill: rgb(255,255,255); fill-rule: nonzero; opacity: 1; visibility: hidden;" vector-effect="non-scaling-stroke"  x="-400" y="-150" rx="0" ry="0" width="800" height="300" />
</g>
<g transform="matrix(2.34 0 0 2.34 1392.22 487.2)"  >
<path style="stroke: none; stroke-width: 1; stroke-dasharray: none; stroke-linecap: butt; stroke-dashoffset: 0; stroke-linejoin: miter; stroke-miterlimit: 4; fill: rgb(45,23,29); fill-rule: nonzero; opacity: 1;" vector-effect="non-scaling-stroke"  transform=" translate(-102.93, -35.68)" d="M 88.861 37.225 C 89.62 37.225 90.069 36.65 90.069 35.751000000000005 C 90.069 34.819 89.587 34.27700000000001 88.87700000000001 34.27700000000001 C 88.471 34.27700000000001 88.18900000000001 34.45700000000001 87.97800000000001 34.74300000000001 L 87.968 34.74300000000001 L 87.968 33.27 L 87.528 33.27 L 87.528 37.143 L 87.968 37.143 L 87.968 36.775 L 87.97800000000001 36.775 C 88.206 37.089 88.48200000000001 37.225 88.861 37.225 Z M 88.82900000000001 36.856 C 88.233 36.856 87.94000000000001 36.385000000000005 87.94000000000001 35.756 C 87.94000000000001 35.15 88.22200000000001 34.651 88.83400000000002 34.651 C 89.36500000000002 34.651 89.62000000000002 35.128 89.62000000000002 35.756 C 89.62000000000002 36.39 89.36500000000002 36.856 88.82900000000002 36.856 Z M 90.81200000000001 38.07 C 91.153 38.07 91.37000000000002 37.95 91.59700000000001 37.37 L 92.795 34.342 L 92.32900000000001 34.342 L 91.68900000000001 36.086999999999996 C 91.60300000000001 36.31999999999999 91.50500000000001 36.63399999999999 91.50500000000001 36.63399999999999 L 91.495 36.63399999999999 C 91.495 36.63399999999999 91.391 36.31999999999999 91.305 36.086999999999996 L 90.644 34.342 L 90.167 34.342 L 91.261 37.062 L 91.15299999999999 37.338 C 91.04499999999999 37.609 90.91999999999999 37.68 90.73599999999999 37.68 C 90.6332141230264 37.685208093493785 90.53076142199816 37.664580032884075 90.43799999999999 37.62 L 90.41599999999998 37.62 L 90.41599999999998 38.01 C 90.53599999999999 38.059 90.64399999999998 38.07 90.81199999999998 38.07 Z M 93.918 37.143 L 94.655 37.143 L 94.655 33.27 L 93.918 33.27 L 93.918 37.143 Z M 96.45700000000001 37.225 C 97.31800000000001 37.225 97.909 36.585 97.909 35.756 C 97.909 34.927 97.319 34.288 96.45700000000001 34.288 C 95.596 34.288 95.00500000000001 34.928 95.00500000000001 35.756 C 95.00500000000001 36.586 95.59500000000001 37.225 96.45700000000001 37.225 Z M 96.45700000000001 36.661 C 96.00200000000001 36.661 95.75300000000001 36.298 95.75300000000001 35.756 C 95.75300000000001 35.215 96.00200000000001 34.846000000000004 96.45700000000001 34.846000000000004 C 96.90700000000001 34.846000000000004 97.161 35.215 97.161 35.756 C 97.161 36.298 96.907 36.661 96.45700000000001 36.661 Z M 99.47600000000001 38.091 C 99.88800000000002 38.091 100.24500000000002 37.994 100.47800000000001 37.777 C 100.68400000000001 37.587 100.80900000000001 37.322 100.80900000000001 36.932 L 100.80900000000001 34.364000000000004 L 100.09900000000002 34.364000000000004 L 100.09900000000002 34.657000000000004 L 100.08800000000002 34.657000000000004 C 99.92000000000002 34.42400000000001 99.66600000000003 34.288000000000004 99.31800000000003 34.288000000000004 C 98.61500000000002 34.288000000000004 98.11600000000003 34.819 98.11600000000003 35.648 C 98.11600000000003 36.48800000000001 98.72300000000003 36.975 99.34100000000002 36.975 C 99.69300000000003 36.975 99.90400000000002 36.835 100.06600000000002 36.65 L 100.08300000000001 36.65 L 100.08300000000001 36.954 C 100.08300000000001 37.333 99.88300000000001 37.534 99.46500000000002 37.534 C 99.12400000000002 37.534 98.96700000000001 37.397999999999996 98.90700000000001 37.224 L 98.17600000000002 37.224 C 98.25100000000002 37.766 98.71700000000001 38.090999999999994 99.47600000000001 38.090999999999994 Z M 99.46600000000001 36.385 C 99.08600000000001 36.385 98.83600000000001 36.108999999999995 98.83600000000001 35.637 C 98.83600000000001 35.171 99.08600000000001 34.879 99.46000000000001 34.879 C 99.90400000000001 34.879 100.12100000000001 35.224999999999994 100.12100000000001 35.632 C 100.12100000000001 36.044 99.93100000000001 36.385 99.465 36.385 Z M 102.60000000000001 37.225 C 103.46100000000001 37.225 104.052 36.585 104.052 35.756 C 104.052 34.927 103.46100000000001 34.288 102.60000000000001 34.288 C 101.73800000000001 34.288 101.14800000000001 34.928 101.14800000000001 35.756 C 101.14800000000001 36.586 101.73800000000001 37.225 102.60000000000001 37.225 Z M 102.60000000000001 36.661 C 102.14500000000001 36.661 101.89500000000001 36.298 101.89500000000001 35.756 C 101.89500000000001 35.215 102.14500000000001 34.846000000000004 102.60000000000001 34.846000000000004 C 103.049 34.846000000000004 103.304 35.215 103.304 35.756 C 103.304 36.298 103.049 36.661 102.60000000000001 36.661 Z M 104.394 37.143 L 105.131 37.143 L 105.131 34.364000000000004 L 104.394 34.364000000000004 L 104.394 37.144000000000005 Z M 104.394 33.931 L 105.131 33.931 L 105.131 33.269999999999996 L 104.394 33.269999999999996 L 104.394 33.92999999999999 Z M 105.60600000000001 38.053 L 106.343 38.053 L 106.343 36.83 L 106.35300000000001 36.83 C 106.51100000000001 37.068999999999996 106.76500000000001 37.226 107.15500000000002 37.226 C 107.87000000000002 37.226 108.35800000000002 36.656 108.35800000000002 35.757 C 108.35800000000002 34.89 107.88700000000001 34.289 107.15000000000002 34.289 C 106.82360153964923 34.2836934695638 106.51633591488618 34.442585106819024 106.33200000000002 34.712 L 106.31600000000002 34.712 L 106.31600000000002 34.365 L 105.60600000000002 34.365 L 105.60600000000002 38.055 Z M 106.998 36.613 C 106.55900000000001 36.613 106.32600000000001 36.282 106.32600000000001 35.778 C 106.32600000000001 35.28 106.51100000000001 34.884 106.971 34.884 C 107.426 34.884 107.61 35.252 107.61 35.778 C 107.61 36.303999999999995 107.372 36.612 106.998 36.612 Z M 109.828 37.225 C 110.521 37.225 110.998 36.889 110.998 36.331 C 110.998 35.681000000000004 110.483 35.551 110.01700000000001 35.453 C 109.62200000000001 35.372 109.254 35.35 109.254 35.112 C 109.254 34.912 109.443 34.802 109.73 34.802 C 110.045 34.802 110.23400000000001 34.912 110.26700000000001 35.208999999999996 L 110.933 35.208999999999996 C 110.879 34.650999999999996 110.47300000000001 34.288999999999994 109.74100000000001 34.288999999999994 C 109.10700000000001 34.288999999999994 108.60900000000001 34.574999999999996 108.60900000000001 35.17699999999999 C 108.60900000000001 35.782999999999994 109.096 35.91899999999999 109.59500000000001 36.016999999999996 C 109.97400000000002 36.092 110.32600000000001 36.11899999999999 110.32600000000001 36.385 C 110.32600000000001 36.58 110.14200000000001 36.705 109.81700000000001 36.705 C 109.48700000000001 36.705 109.259 36.564 109.21000000000001 36.244 L 108.528 36.244 C 108.57100000000001 36.834 109.021 37.224 109.828 37.224 Z M 113.796 37.143 L 113.796 34.364000000000004 L 113.05900000000001 34.364000000000004 L 113.05900000000001 35.968 C 113.05900000000001 36.336000000000006 112.84700000000001 36.596000000000004 112.501 36.596000000000004 C 112.18700000000001 36.596000000000004 112.04 36.417 112.04 36.092000000000006 L 112.04 34.364000000000004 L 111.30900000000001 34.364000000000004 L 111.30900000000001 36.217000000000006 C 111.30900000000001 36.824000000000005 111.656 37.21900000000001 112.27300000000001 37.21900000000001 C 112.66300000000001 37.21900000000001 112.88000000000001 37.07300000000001 113.07000000000001 36.81900000000001 L 113.08600000000001 36.81900000000001 L 113.08600000000001 37.14300000000001 L 113.796 37.14300000000001 Z M 114.272 37.143 L 115.009 37.143 L 115.009 35.53 C 115.009 35.161 115.209 34.923 115.507 34.923 C 115.778 34.923 115.935 35.086 115.935 35.4 L 115.935 37.144 L 116.672 37.144 L 116.672 35.53 C 116.672 35.161 116.862 34.923 117.17099999999999 34.923 C 117.442 34.923 117.59899999999999 35.086 117.59899999999999 35.4 L 117.59899999999999 37.144 L 118.33599999999998 37.144 L 118.33599999999998 35.275 C 118.33599999999998 34.668 118.00499999999998 34.289 117.41999999999999 34.289 C 117.06799999999998 34.289 116.77499999999999 34.473 116.58599999999998 34.777 L 116.57499999999999 34.777 C 116.438629422706 34.475323925185975 116.13602204487697 34.28354158702939 115.80499999999999 34.289 C 115.47408404981512 34.28068632346124 115.16486400623532 34.453113857055925 114.99799999999999 34.739000000000004 L 114.98199999999999 34.739000000000004 L 114.98199999999999 34.365 L 114.27199999999999 34.365 L 114.27199999999999 37.145 Z" stroke-linecap="round" />
</g>
<g transform="matrix(1 0 0 1 148.93 150)"  >
<g style="opacity: 1;" vector-effect="non-scaling-stroke"   >
		<g transform="matrix(0.07 0 0 -0.07 0 0)"  >
<path style="stroke: none; stroke-width: 1; stroke-dasharray: none; stroke-linecap: butt; stroke-dashoffset: 0; stroke-linejoin: miter; stroke-miterlimit: 4; fill: rgb(255,255,255); fill-rule: nonzero; opacity: 1;" vector-effect="non-scaling-stroke"  transform=" translate(-2190, -2260)" d="M 240 2260 L 240 260 L 2005 260 L 3770 261 L 3872 495 L 3975 730 L 2367 735 L 760 740 L 760 2430 L 760 4120 L 2221 4120 L 3682 4120 L 3799 3872 C 3863 3736 3922 3605 3929 3582 L 3943 3540 L 2481 3540 L 1020 3540 L 1020 3040 L 1020 2540 L 2090 2540 C 2679 2540 3160 2537 3160 2533 C 3160 2529 3102 2401 3030 2248 L 2900 1970 L 1960 1965 L 1020 1960 L 1020 1460 L 1020 960 L 2531 960 L 4042 960 L 4069 1025 L 4097 1090 L 2618 1095 L 1140 1100 L 1140 1470 L 1140 1840 L 2064 1845 L 2987 1850 L 3170 2250 L 3353 2650 L 2247 2655 L 1140 2660 L 1140 3040 L 1140 3420 L 2640 3420 C 3465 3420 4140 3423 4140 3426 C 4140 3430 4056 3616 3952 3841 L 3765 4250 L 2202 4255 L 640 4260 L 640 2440 L 640 620 L 2210 620 C 3074 620 3780 616 3780 611 C 3780 605 3758 551 3731 490 L 3682 380 L 2026 385 L 370 390 L 365 2325 L 360 4260 L 300 4260 L 240 4260 L 240 2260 z" stroke-linecap="round" />
</g>
		<g transform="matrix(0.07 0 0 -0.07 4.4 -104.79)"  >
<path style="stroke: none; stroke-width: 1; stroke-dasharray: none; stroke-linecap: butt; stroke-dashoffset: 0; stroke-linejoin: miter; stroke-miterlimit: 4; fill: rgb(255,255,255); fill-rule: nonzero; opacity: 1;" vector-effect="non-scaling-stroke"  transform=" translate(-2256.03, -3831.91)" d="M 1008 3871 C 967 3765 903 3770 2265 3765 C 2955 3762 3520 3765 3520 3771 C 3520 3777 3506 3809 3489 3841 L 3459 3900 L 2239 3900 C 1195 3900 1017 3896 1008 3871 z" stroke-linecap="round" />
</g>
		<g transform="matrix(0.07 0 0 -0.07 -21.33 0)"  >
<path style="stroke: none; stroke-width: 1; stroke-dasharray: none; stroke-linecap: butt; stroke-dashoffset: 0; stroke-linejoin: miter; stroke-miterlimit: 4; fill: rgb(255,255,255); fill-rule: nonzero; opacity: 1;" vector-effect="non-scaling-stroke"  transform=" translate(-1870.02, -2260)" d="M 1020 2260 L 1020 2200 L 1849 2200 C 2742 2200 2720 2198 2720 2299 C 2720 2313 2458 2320 1870 2320 L 1020 2320 L 1020 2260 z" stroke-linecap="round" />
</g>
</g>
</g>
<g transform="matrix(1 0 0 1 400 320.61)" style="" id="b4824c80-8792-4a26-8158-fbbf38d56f2f"  >
		<text xml:space="preserve" font-family="Raleway" font-size="83" font-style="normal" font-weight="700" style="stroke: none; stroke-width: 1; stroke-dasharray: none; stroke-linecap: butt; stroke-dashoffset: 0; stroke-linejoin: miter; stroke-miterlimit: 4; fill: rgb(255,255,255); fill-rule: nonzero; opacity: 1; white-space: pre;" ><tspan x="-176.75" y="-114.61" style="white-space: pre; ">Made By </tspan></text>
</g>
<g transform="matrix(1 0 0 1 543.29 250.89)" style="" id="237db6c5-e124-4222-91d5-714d0e48926e"  >
		<text xml:space="preserve" font-family="Lato" font-size="67" font-style="normal" font-weight="400" style="stroke: none; stroke-width: 1; stroke-dasharray: none; stroke-linecap: butt; stroke-dashoffset: 0; stroke-linejoin: miter; stroke-miterlimit: 4; fill: rgb(255,255,255); fill-rule: nonzero; opacity: 1; white-space: pre;" ><tspan x="-237.62" y="21.05" >Iminthebibleson</tspan></text>
</g>
<g transform="matrix(NaN NaN NaN NaN 0 0)"  >
<g style=""   >
</g>
</g>
<g transform="matrix(NaN NaN NaN NaN 0 0)"  >
<g style=""   >
</g>
</g>
</svg>