<svg width="800" height="300" xmlns="http://www.w3.org/2000/svg" xml:space="preserve" version="1.1">
 <desc>Created with Fabric.js 5.2.4</desc>

 <g>
  <title>Layer 1</title>
  <rect id="svg_1" fill="transparent" height="300" width="800" y="0" x="0"/>
  <g id="d241386a-b232-4c31-adca-1da98dd0cfe1"/>
  <g id="svg_3" transform="matrix(2.34 0 0 2.34 1392.22 487.2)">
   <path id="svg_4" fill-rule=" nonzero" fill=" rgb(45,23,29)" stroke-miterlimit="4" stroke-linejoin=" miter" stroke-dashoffset="0" stroke-dasharray=" none" stroke=" none" stroke-linecap=" butt" d="m-14.069,1.545c0.759,0 1.208,-0.575 1.208,-1.474c0,-0.932 -0.482,-1.474 -1.192,-1.474c-0.406,0 -0.688,0.18 -0.899,0.466l-0.01,0l0,-1.473l-0.44,0l0,3.873l0.44,0l0,-0.368l0.01,0c0.228,0.314 0.504,0.45 0.883,0.45zm-0.032,-0.369c-0.596,0 -0.889,-0.471 -0.889,-1.1c0,-0.606 0.282,-1.105 0.894,-1.105c0.531,0 0.786,0.477 0.786,1.105c0,0.634 -0.255,1.1 -0.791,1.1zm1.983,1.214c0.341,0 0.558,-0.12 0.785,-0.7l1.198,-3.028l-0.466,0l-0.64,1.745c-0.086,0.233 -0.184,0.547 -0.184,0.547l-0.01,0c0,0 -0.104,-0.314 -0.19,-0.547l-0.661,-1.745l-0.477,0l1.094,2.72l-0.108,0.276c-0.108,0.271 -0.233,0.342 -0.417,0.342c-0.10279,0.00521 -0.20524,-0.01542 -0.298,-0.06l-0.022,0l0,0.39c0.12,0.049 0.228,0.06 0.396,0.06zm3.106,-0.927l0.737,0l0,-3.873l-0.737,0l0,3.873zm2.539,0.082c0.861,0 1.452,-0.64 1.452,-1.469c0,-0.829 -0.59,-1.468 -1.452,-1.468c-0.861,0 -1.452,0.64 -1.452,1.468c0,0.83 0.59,1.469 1.452,1.469zm0,-0.564c-0.455,0 -0.704,-0.363 -0.704,-0.905c0,-0.541 0.249,-0.91 0.704,-0.91c0.45,0 0.704,0.369 0.704,0.91c0,0.542 -0.254,0.905 -0.704,0.905zm3.019,1.43c0.412,0 0.769,-0.097 1.002,-0.314c0.206,-0.19 0.331,-0.455 0.331,-0.845l0,-2.568l-0.71,0l0,0.293l-0.011,0c-0.168,-0.233 -0.422,-0.369 -0.77,-0.369c-0.703,0 -1.202,0.531 -1.202,1.36c0,0.84 0.607,1.327 1.225,1.327c0.352,0 0.563,-0.14 0.725,-0.325l0.017,0l0,0.304c0,0.379 -0.2,0.58 -0.618,0.58c-0.341,0 -0.498,-0.136 -0.558,-0.31l-0.731,0c0.075,0.542 0.541,0.867 1.3,0.867zm-0.01,-1.706c-0.38,0 -0.63,-0.276 -0.63,-0.748c0,-0.466 0.25,-0.758 0.624,-0.758c0.444,0 0.661,0.346 0.661,0.753c0,0.412 -0.19,0.753 -0.656,0.753l0.001,0zm3.134,0.84c0.861,0 1.452,-0.64 1.452,-1.469c0,-0.829 -0.591,-1.468 -1.452,-1.468c-0.862,0 -1.452,0.64 -1.452,1.468c0,0.83 0.59,1.469 1.452,1.469zm0,-0.564c-0.455,0 -0.705,-0.363 -0.705,-0.905c0,-0.541 0.25,-0.91 0.705,-0.91c0.449,0 0.704,0.369 0.704,0.91c0,0.542 -0.255,0.905 -0.704,0.905zm1.794,0.482l0.737,0l0,-2.779l-0.737,0l0,2.78l0,-0.001zm0,-3.212l0.737,0l0,-0.661l-0.737,0l0,0.66l0,0.001zm1.212,4.122l0.737,0l0,-1.223l0.01,0c0.158,0.239 0.412,0.396 0.802,0.396c0.715,0 1.203,-0.57 1.203,-1.469c0,-0.867 -0.471,-1.468 -1.208,-1.468c-0.3264,-0.00531 -0.63366,0.15359 -0.818,0.423l-0.016,0l0,-0.347l-0.71,0l0,3.69l0,-0.002zm1.392,-1.44c-0.439,0 -0.672,-0.331 -0.672,-0.835c0,-0.498 0.185,-0.894 0.645,-0.894c0.455,0 0.639,0.368 0.639,0.894c0,0.526 -0.238,0.834 -0.612,0.834l0,0.001zm2.83,0.612c0.693,0 1.17,-0.336 1.17,-0.894c0,-0.65 -0.515,-0.78 -0.981,-0.878c-0.395,-0.081 -0.763,-0.103 -0.763,-0.341c0,-0.2 0.189,-0.31 0.476,-0.31c0.315,0 0.504,0.11 0.537,0.407l0.666,0c-0.054,-0.558 -0.46,-0.92 -1.192,-0.92c-0.634,0 -1.132,0.286 -1.132,0.888c0,0.606 0.487,0.742 0.986,0.84c0.379,0.075 0.731,0.102 0.731,0.368c0,0.195 -0.184,0.32 -0.509,0.32c-0.33,0 -0.558,-0.141 -0.607,-0.461l-0.682,0c0.043,0.59 0.493,0.98 1.3,0.98l0,0.001zm3.968,-0.082l0,-2.779l-0.737,0l0,1.604c0,0.368 -0.212,0.628 -0.558,0.628c-0.314,0 -0.461,-0.179 -0.461,-0.504l0,-1.728l-0.731,0l0,1.853c0,0.607 0.347,1.002 0.964,1.002c0.39,0 0.607,-0.146 0.797,-0.4l0.016,0l0,0.324l0.71,0zm0.476,0l0.737,0l0,-1.613c0,-0.369 0.2,-0.607 0.498,-0.607c0.271,0 0.428,0.163 0.428,0.477l0,1.744l0.737,0l0,-1.614c0,-0.369 0.19,-0.607 0.499,-0.607c0.271,0 0.428,0.163 0.428,0.477l0,1.744l0.737,0l0,-1.869c0,-0.607 -0.331,-0.986 -0.916,-0.986c-0.352,0 -0.645,0.184 -0.834,0.488l-0.011,0c-0.13637,-0.30168 -0.43898,-0.49346 -0.77,-0.488c-0.33092,-0.00831 -0.64014,0.16411 -0.807,0.45l-0.016,0l0,-0.374l-0.71,0l0,2.78l0,-0.002z" vector-effect="non-scaling-stroke"/>
  </g>
  <g id="svg_5" transform="matrix(1 0 0 1 148.93 150)">
   <g id="svg_6" vector-effect="non-scaling-stroke">
    <g id="svg_7" transform="matrix(0.07 0 0 -0.07 0 0)">
     <path id="svg_8" fill-rule=" nonzero" fill=" rgb(255,255,255)" stroke-miterlimit="4" stroke-linejoin=" miter" stroke-dashoffset="0" stroke-dasharray=" none" stroke=" none" stroke-linecap=" butt" d="m-1950,0l0,-2000l1765,0l1765,1l102,234l103,235l-1608,5l-1607,5l0,1690l0,1690l1461,0l1461,0l117,-248c64,-136 123,-267 130,-290l14,-42l-1462,0l-1461,0l0,-500l0,-500l1070,0c589,0 1070,-3 1070,-7c0,-4 -58,-132 -130,-285l-130,-278l-940,-5l-940,-5l0,-500l0,-500l1511,0l1511,0l27,65l28,65l-1479,5l-1478,5l0,370l0,370l924,5l923,5l183,400l183,400l-1106,5l-1107,5l0,380l0,380l1500,0c825,0 1500,3 1500,6c0,4 -84,190 -188,415l-187,409l-1563,5l-1562,5l0,-1820l0,-1820l1570,0c864,0 1570,-4 1570,-9c0,-6 -22,-60 -49,-121l-49,-110l-1656,5l-1656,5l-5,1935l-5,1935l-60,0l-60,0l0,-2000z" vector-effect="non-scaling-stroke"/>
    </g>
    <g id="svg_9" transform="matrix(0.07 0 0 -0.07 4.4 -104.79)">
     <path id="svg_10" fill-rule=" nonzero" fill=" rgb(255,255,255)" stroke-miterlimit="4" stroke-linejoin=" miter" stroke-dashoffset="0" stroke-dasharray=" none" stroke=" none" stroke-linecap=" butt" d="m-1248.03003,39.09009c-41,-106 -105,-101 1257,-106c690,-3 1255,0 1255,6c0,6 -14,38 -31,70l-30,59l-1220,0c-1044,0 -1222,-4 -1231,-29z" vector-effect="non-scaling-stroke"/>
    </g>
    <g id="svg_11" transform="matrix(0.07 0 0 -0.07 -21.33 0)">
     <path id="svg_12" fill-rule=" nonzero" fill=" rgb(255,255,255)" stroke-miterlimit="4" stroke-linejoin=" miter" stroke-dashoffset="0" stroke-dasharray=" none" stroke=" none" stroke-linecap=" butt" d="m-850.02002,0l0,-60l829,0c893,0 871,-2 871,99c0,14 -262,21 -850,21l-850,0l0,-60z" vector-effect="non-scaling-stroke"/>
    </g>
   </g>
  </g>
  <text transform="matrix(1 0 0 1 400 320.61)" id="svg_13" fill-rule=" nonzero" fill=" rgb(255,255,255)" stroke-miterlimit="4" stroke-linejoin=" miter" stroke-dashoffset="0" stroke-linecap=" butt" stroke-dasharray=" none" stroke=" none" font-weight="normal" font-style="normal" font-size="83" font-family="sans-serif" xml:space="preserve">
   <tspan id="svg_14" y="-114.61" x="-176.75">Made By</tspan>
  </text>
  <text transform="matrix(1 0 0 1 543.29 250.89)" id="svg_15" fill-rule=" nonzero" fill=" rgb(255,255,255)" stroke-miterlimit="4" stroke-linejoin=" miter" stroke-dashoffset="0" stroke-linecap=" butt" stroke-dasharray=" none" stroke=" none" font-weight="normal" font-style="normal" font-size="67" font-family="sans-serif" xml:space="preserve">
   <tspan id="svg_16" y="21.05" x="-237.62">Iminthebibleson</tspan>
  </text>
  <g id="svg_17">
   <g id="svg_18"/>
  </g>
  <g id="svg_19">
   <g id="svg_20"/>
  </g>
 </g>
</svg>